<?xml version="1.0" encoding="UTF-8" standalone="no"?>
<!DOCTYPE svg PUBLIC "-//W3C//DTD SVG 1.1//EN"
 "http://www.w3.org/Graphics/SVG/1.1/DTD/svg11.dtd">
<!-- Generated by graphviz version 2.43.0 (0)
 -->
<!-- Title: IterVar Relationship Graph Pages: 1 -->
<svg width="4860pt" height="288pt"
 viewBox="0.00 0.00 4860.00 288.00" xmlns="http://www.w3.org/2000/svg" xmlns:xlink="http://www.w3.org/1999/xlink">
<g id="graph0" class="graph" transform="scale(1 1) rotate(0) translate(4 284)">
<title>IterVar Relationship Graph</title>
<polygon fill="white" stroke="transparent" points="-4,4 -4,-284 4856,-284 4856,4 -4,4"/>
<g id="clust1" class="cluster">
<title>cluster_legend</title>
<polygon fill="none" stroke="black" points="8,-8 8,-272 152,-272 152,-8 8,-8"/>
<text text-anchor="middle" x="80" y="-256.8" font-family="Times,serif" font-size="14.00">Legend</text>
</g>
<g id="clust2" class="cluster">
<title>cluster_Stage_0</title>
<polygon fill="none" stroke="black" points="160,-102.5 160,-177.5 326,-177.5 326,-102.5 160,-102.5"/>
<text text-anchor="middle" x="243" y="-162.3" font-family="Times,serif" font-size="14.00">A</text>
</g>
<g id="clust3" class="cluster">
<title>cluster_Stage_1</title>
<polygon fill="none" stroke="black" points="334,-100.5 334,-179.5 1187,-179.5 1187,-100.5 334,-100.5"/>
<text text-anchor="middle" x="760.5" y="-164.3" font-family="Times,serif" font-size="14.00">pad_temp</text>
</g>
<g id="clust4" class="cluster">
<title>cluster_Stage_2</title>
<polygon fill="none" stroke="black" points="1195,-102.5 1195,-177.5 1369,-177.5 1369,-102.5 1195,-102.5"/>
<text text-anchor="middle" x="1282" y="-162.3" font-family="Times,serif" font-size="14.00">W</text>
</g>
<g id="clust5" class="cluster">
<title>cluster_Stage_3</title>
<polygon fill="none" stroke="black" points="1377,-100.5 1377,-179.5 2922,-179.5 2922,-100.5 1377,-100.5"/>
<text text-anchor="middle" x="2149.5" y="-164.3" font-family="Times,serif" font-size="14.00">conv2d_hwcn</text>
</g>
<g id="clust6" class="cluster">
<title>cluster_Stage_4</title>
<polygon fill="none" stroke="black" points="2930,-102.5 2930,-177.5 3122,-177.5 3122,-102.5 2930,-102.5"/>
<text text-anchor="middle" x="3026" y="-162.3" font-family="Times,serif" font-size="14.00">bias</text>
</g>
<g id="clust7" class="cluster">
<title>cluster_Stage_5</title>
<polygon fill="none" stroke="black" points="3130,-100.5 3130,-179.5 3983,-179.5 3983,-100.5 3130,-100.5"/>
<text text-anchor="middle" x="3556.5" y="-164.3" font-family="Times,serif" font-size="14.00">T_add</text>
</g>
<g id="clust8" class="cluster">
<title>cluster_Stage_6</title>
<polygon fill="none" stroke="black" points="3991,-100.5 3991,-179.5 4844,-179.5 4844,-100.5 3991,-100.5"/>
<text text-anchor="middle" x="4417.5" y="-164.3" font-family="Times,serif" font-size="14.00">compute</text>
</g>
<!-- legend -->
<g id="node1" class="node">
<title>legend</title>
<polygon fill="#ffffff" stroke="transparent" points="17,-215.5 17,-240.5 27,-240.5 27,-215.5 17,-215.5"/>
<polygon fill="none" stroke="black" points="17,-215.5 17,-240.5 27,-240.5 27,-215.5 17,-215.5"/>
<polygon fill="white" stroke="transparent" points="27,-215.5 27,-240.5 144,-240.5 144,-215.5 27,-215.5"/>
<polygon fill="none" stroke="black" points="27,-215.5 27,-240.5 144,-240.5 144,-215.5 27,-215.5"/>
<text text-anchor="start" x="52" y="-224.3" font-family="Times,serif" font-size="14.00">kDataPar</text>
<polygon fill="#2980b9" stroke="transparent" points="17,-190.5 17,-215.5 27,-215.5 27,-190.5 17,-190.5"/>
<polygon fill="none" stroke="black" points="17,-190.5 17,-215.5 27,-215.5 27,-190.5 17,-190.5"/>
<polygon fill="white" stroke="transparent" points="27,-190.5 27,-215.5 144,-215.5 144,-190.5 27,-190.5"/>
<polygon fill="none" stroke="black" points="27,-190.5 27,-215.5 144,-215.5 144,-190.5 27,-190.5"/>
<text text-anchor="start" x="36" y="-199.3" font-family="Times,serif" font-size="14.00">kThreadIndex</text>
<polygon fill="#fad7a0" stroke="transparent" points="17,-165.5 17,-190.5 27,-190.5 27,-165.5 17,-165.5"/>
<polygon fill="none" stroke="black" points="17,-165.5 17,-190.5 27,-190.5 27,-165.5 17,-165.5"/>
<polygon fill="white" stroke="transparent" points="27,-165.5 27,-190.5 144,-190.5 144,-165.5 27,-165.5"/>
<polygon fill="none" stroke="black" points="27,-165.5 27,-190.5 144,-190.5 144,-165.5 27,-165.5"/>
<text text-anchor="start" x="32" y="-174.3" font-family="Times,serif" font-size="14.00">kCommReduce</text>
<polygon fill="#d35400" stroke="transparent" points="17,-140.5 17,-165.5 27,-165.5 27,-140.5 17,-140.5"/>
<polygon fill="none" stroke="black" points="17,-140.5 17,-165.5 27,-165.5 27,-140.5 17,-140.5"/>
<polygon fill="white" stroke="transparent" points="27,-140.5 27,-165.5 144,-165.5 144,-140.5 27,-140.5"/>
<polygon fill="none" stroke="black" points="27,-140.5 27,-165.5 144,-165.5 144,-140.5 27,-140.5"/>
<text text-anchor="start" x="51.5" y="-149.3" font-family="Times,serif" font-size="14.00">kOrdered</text>
<polygon fill="#abb2b9" stroke="transparent" points="17,-115.5 17,-140.5 27,-140.5 27,-115.5 17,-115.5"/>
<polygon fill="none" stroke="black" points="17,-115.5 17,-140.5 27,-140.5 27,-115.5 17,-115.5"/>
<polygon fill="white" stroke="transparent" points="27,-115.5 27,-140.5 144,-140.5 144,-115.5 27,-115.5"/>
<polygon fill="none" stroke="black" points="27,-115.5 27,-140.5 144,-140.5 144,-115.5 27,-115.5"/>
<text text-anchor="start" x="53.5" y="-124.3" font-family="Times,serif" font-size="14.00">kOpaque</text>
<polygon fill="#d2b4de" stroke="transparent" points="17,-90.5 17,-115.5 27,-115.5 27,-90.5 17,-90.5"/>
<polygon fill="none" stroke="black" points="17,-90.5 17,-115.5 27,-115.5 27,-90.5 17,-90.5"/>
<polygon fill="white" stroke="transparent" points="27,-90.5 27,-115.5 144,-115.5 144,-90.5 27,-90.5"/>
<polygon fill="none" stroke="black" points="27,-90.5 27,-115.5 144,-115.5 144,-90.5 27,-90.5"/>
<text text-anchor="start" x="50" y="-99.3" font-family="Times,serif" font-size="14.00">kUnrolled</text>
<polygon fill="#aed6f1" stroke="transparent" points="17,-65.5 17,-90.5 27,-90.5 27,-65.5 17,-65.5"/>
<polygon fill="none" stroke="black" points="17,-65.5 17,-90.5 27,-90.5 27,-65.5 17,-65.5"/>
<polygon fill="white" stroke="transparent" points="27,-65.5 27,-90.5 144,-90.5 144,-65.5 27,-65.5"/>
<polygon fill="none" stroke="black" points="27,-65.5 27,-90.5 144,-90.5 144,-65.5 27,-65.5"/>
<text text-anchor="start" x="43.5" y="-74.3" font-family="Times,serif" font-size="14.00">kVectorized</text>
<polygon fill="#f5b7b1" stroke="transparent" points="17,-40.5 17,-65.5 27,-65.5 27,-40.5 17,-40.5"/>
<polygon fill="none" stroke="black" points="17,-40.5 17,-65.5 27,-65.5 27,-40.5 17,-40.5"/>
<polygon fill="white" stroke="transparent" points="27,-40.5 27,-65.5 144,-65.5 144,-40.5 27,-40.5"/>
<polygon fill="none" stroke="black" points="27,-40.5 27,-65.5 144,-65.5 144,-40.5 27,-40.5"/>
<text text-anchor="start" x="39.5" y="-49.3" font-family="Times,serif" font-size="14.00">kParallelized</text>
<polygon fill="#a9dfbf" stroke="transparent" points="17,-15.5 17,-40.5 27,-40.5 27,-15.5 17,-15.5"/>
<polygon fill="none" stroke="black" points="17,-15.5 17,-40.5 27,-40.5 27,-15.5 17,-15.5"/>
<polygon fill="white" stroke="transparent" points="27,-15.5 27,-40.5 144,-40.5 144,-15.5 27,-15.5"/>
<polygon fill="none" stroke="black" points="27,-15.5 27,-40.5 144,-40.5 144,-15.5 27,-15.5"/>
<text text-anchor="start" x="42.5" y="-24.3" font-family="Times,serif" font-size="14.00">kTensorized</text>
</g>
<!-- A_placeholder -->
<!-- IterVar_1_0 -->
<g id="node3" class="node">
<title>IterVar_1_0</title>
<polygon fill="#ffffff" stroke="transparent" points="983,-108.5 983,-148.5 1007,-148.5 1007,-108.5 983,-108.5"/>
<polygon fill="none" stroke="black" points="983,-108.5 983,-148.5 1007,-148.5 1007,-108.5 983,-108.5"/>
<text text-anchor="start" x="988" y="-124.8" font-family="Times,serif" font-size="14.00">&#45;1</text>
<polygon fill="white" stroke="transparent" points="1007,-108.5 1007,-148.5 1179,-148.5 1179,-108.5 1007,-108.5"/>
<polygon fill="none" stroke="black" points="1007,-108.5 1007,-148.5 1179,-148.5 1179,-108.5 1007,-108.5"/>
<text text-anchor="start" x="1024.5" y="-132.3" font-family="Times,serif" font-size="14.00">i0: int32(kDataPar)</text>
<text text-anchor="start" x="1012" y="-117.3" font-family="Times,serif" font-size="14.00">range(min=0, ext=34)</text>
</g>
<!-- IterVar_1_1 -->
<g id="node4" class="node">
<title>IterVar_1_1</title>
<polygon fill="#ffffff" stroke="transparent" points="769,-108.5 769,-148.5 793,-148.5 793,-108.5 769,-108.5"/>
<polygon fill="none" stroke="black" points="769,-108.5 769,-148.5 793,-148.5 793,-108.5 769,-108.5"/>
<text text-anchor="start" x="774" y="-124.8" font-family="Times,serif" font-size="14.00">&#45;1</text>
<polygon fill="white" stroke="transparent" points="793,-108.5 793,-148.5 965,-148.5 965,-108.5 793,-108.5"/>
<polygon fill="none" stroke="black" points="793,-108.5 793,-148.5 965,-148.5 965,-108.5 793,-108.5"/>
<text text-anchor="start" x="810.5" y="-132.3" font-family="Times,serif" font-size="14.00">i1: int32(kDataPar)</text>
<text text-anchor="start" x="798" y="-117.3" font-family="Times,serif" font-size="14.00">range(min=0, ext=34)</text>
</g>
<!-- IterVar_1_2 -->
<g id="node5" class="node">
<title>IterVar_1_2</title>
<polygon fill="#ffffff" stroke="transparent" points="547,-108.5 547,-148.5 571,-148.5 571,-108.5 547,-108.5"/>
<polygon fill="none" stroke="black" points="547,-108.5 547,-148.5 571,-148.5 571,-108.5 547,-108.5"/>
<text text-anchor="start" x="552" y="-124.8" font-family="Times,serif" font-size="14.00">&#45;1</text>
<polygon fill="white" stroke="transparent" points="571,-108.5 571,-148.5 752,-148.5 752,-108.5 571,-108.5"/>
<polygon fill="none" stroke="black" points="571,-108.5 571,-148.5 752,-148.5 752,-108.5 571,-108.5"/>
<text text-anchor="start" x="593" y="-132.3" font-family="Times,serif" font-size="14.00">i2: int32(kDataPar)</text>
<text text-anchor="start" x="576" y="-117.3" font-family="Times,serif" font-size="14.00">range(min=0, ext=256)</text>
</g>
<!-- IterVar_1_3 -->
<g id="node6" class="node">
<title>IterVar_1_3</title>
<polygon fill="#ffffff" stroke="transparent" points="342,-108.5 342,-148.5 366,-148.5 366,-108.5 342,-108.5"/>
<polygon fill="none" stroke="black" points="342,-108.5 342,-148.5 366,-148.5 366,-108.5 342,-108.5"/>
<text text-anchor="start" x="347" y="-124.8" font-family="Times,serif" font-size="14.00">&#45;1</text>
<polygon fill="white" stroke="transparent" points="366,-108.5 366,-148.5 529,-148.5 529,-108.5 366,-108.5"/>
<polygon fill="none" stroke="black" points="366,-108.5 366,-148.5 529,-148.5 529,-108.5 366,-108.5"/>
<text text-anchor="start" x="379" y="-132.3" font-family="Times,serif" font-size="14.00">i3: int32(kDataPar)</text>
<text text-anchor="start" x="371" y="-117.3" font-family="Times,serif" font-size="14.00">range(min=0, ext=1)</text>
</g>
<!-- W_placeholder -->
<!-- IterVar_3_0 -->
<g id="node8" class="node">
<title>IterVar_3_0</title>
<polygon fill="#ffffff" stroke="transparent" points="2718,-108.5 2718,-148.5 2742,-148.5 2742,-108.5 2718,-108.5"/>
<polygon fill="none" stroke="black" points="2718,-108.5 2718,-148.5 2742,-148.5 2742,-108.5 2718,-108.5"/>
<text text-anchor="start" x="2723" y="-124.8" font-family="Times,serif" font-size="14.00">&#45;1</text>
<polygon fill="white" stroke="transparent" points="2742,-108.5 2742,-148.5 2914,-148.5 2914,-108.5 2742,-108.5"/>
<polygon fill="none" stroke="black" points="2742,-108.5 2742,-148.5 2914,-148.5 2914,-108.5 2742,-108.5"/>
<text text-anchor="start" x="2758" y="-132.3" font-family="Times,serif" font-size="14.00">yy: int32(kDataPar)</text>
<text text-anchor="start" x="2747" y="-117.3" font-family="Times,serif" font-size="14.00">range(min=0, ext=32)</text>
</g>
<!-- IterVar_3_1 -->
<g id="node9" class="node">
<title>IterVar_3_1</title>
<polygon fill="#ffffff" stroke="transparent" points="2504,-108.5 2504,-148.5 2528,-148.5 2528,-108.5 2504,-108.5"/>
<polygon fill="none" stroke="black" points="2504,-108.5 2504,-148.5 2528,-148.5 2528,-108.5 2504,-108.5"/>
<text text-anchor="start" x="2509" y="-124.8" font-family="Times,serif" font-size="14.00">&#45;1</text>
<polygon fill="white" stroke="transparent" points="2528,-108.5 2528,-148.5 2700,-148.5 2700,-108.5 2528,-108.5"/>
<polygon fill="none" stroke="black" points="2528,-108.5 2528,-148.5 2700,-148.5 2700,-108.5 2528,-108.5"/>
<text text-anchor="start" x="2544" y="-132.3" font-family="Times,serif" font-size="14.00">xx: int32(kDataPar)</text>
<text text-anchor="start" x="2533" y="-117.3" font-family="Times,serif" font-size="14.00">range(min=0, ext=32)</text>
</g>
<!-- IterVar_3_2 -->
<g id="node10" class="node">
<title>IterVar_3_2</title>
<polygon fill="#ffffff" stroke="transparent" points="2282,-108.5 2282,-148.5 2306,-148.5 2306,-108.5 2282,-108.5"/>
<polygon fill="none" stroke="black" points="2282,-108.5 2282,-148.5 2306,-148.5 2306,-108.5 2282,-108.5"/>
<text text-anchor="start" x="2287" y="-124.8" font-family="Times,serif" font-size="14.00">&#45;1</text>
<polygon fill="white" stroke="transparent" points="2306,-108.5 2306,-148.5 2487,-148.5 2487,-108.5 2306,-108.5"/>
<polygon fill="none" stroke="black" points="2306,-108.5 2306,-148.5 2487,-148.5 2487,-108.5 2306,-108.5"/>
<text text-anchor="start" x="2330" y="-132.3" font-family="Times,serif" font-size="14.00">ff: int32(kDataPar)</text>
<text text-anchor="start" x="2311" y="-117.3" font-family="Times,serif" font-size="14.00">range(min=0, ext=256)</text>
</g>
<!-- IterVar_3_3 -->
<g id="node11" class="node">
<title>IterVar_3_3</title>
<polygon fill="#ffffff" stroke="transparent" points="2077,-108.5 2077,-148.5 2101,-148.5 2101,-108.5 2077,-108.5"/>
<polygon fill="none" stroke="black" points="2077,-108.5 2077,-148.5 2101,-148.5 2101,-108.5 2077,-108.5"/>
<text text-anchor="start" x="2082" y="-124.8" font-family="Times,serif" font-size="14.00">&#45;1</text>
<polygon fill="white" stroke="transparent" points="2101,-108.5 2101,-148.5 2264,-148.5 2264,-108.5 2101,-108.5"/>
<polygon fill="none" stroke="black" points="2101,-108.5 2101,-148.5 2264,-148.5 2264,-108.5 2101,-108.5"/>
<text text-anchor="start" x="2111.5" y="-132.3" font-family="Times,serif" font-size="14.00">nn: int32(kDataPar)</text>
<text text-anchor="start" x="2106" y="-117.3" font-family="Times,serif" font-size="14.00">range(min=0, ext=1)</text>
</g>
<!-- IterVar_3_4 -->
<g id="node12" class="node">
<title>IterVar_3_4</title>
<polygon fill="#fad7a0" stroke="transparent" points="1846,-108.5 1846,-148.5 1870,-148.5 1870,-108.5 1846,-108.5"/>
<polygon fill="none" stroke="black" points="1846,-108.5 1846,-148.5 1870,-148.5 1870,-108.5 1846,-108.5"/>
<text text-anchor="start" x="1851" y="-124.8" font-family="Times,serif" font-size="14.00">&#45;1</text>
<polygon fill="white" stroke="transparent" points="1870,-108.5 1870,-148.5 2059,-148.5 2059,-108.5 1870,-108.5"/>
<polygon fill="none" stroke="black" points="1870,-108.5 1870,-148.5 2059,-148.5 2059,-108.5 1870,-108.5"/>
<text text-anchor="start" x="1875" y="-132.3" font-family="Times,serif" font-size="14.00">rx: int32(kCommReduce)</text>
<text text-anchor="start" x="1888" y="-117.3" font-family="Times,serif" font-size="14.00">range(min=0, ext=3)</text>
</g>
<!-- IterVar_3_5 -->
<g id="node13" class="node">
<title>IterVar_3_5</title>
<polygon fill="#fad7a0" stroke="transparent" points="1615,-108.5 1615,-148.5 1639,-148.5 1639,-108.5 1615,-108.5"/>
<polygon fill="none" stroke="black" points="1615,-108.5 1615,-148.5 1639,-148.5 1639,-108.5 1615,-108.5"/>
<text text-anchor="start" x="1620" y="-124.8" font-family="Times,serif" font-size="14.00">&#45;1</text>
<polygon fill="white" stroke="transparent" points="1639,-108.5 1639,-148.5 1828,-148.5 1828,-108.5 1639,-108.5"/>
<polygon fill="none" stroke="black" points="1639,-108.5 1639,-148.5 1828,-148.5 1828,-108.5 1639,-108.5"/>
<text text-anchor="start" x="1644" y="-132.3" font-family="Times,serif" font-size="14.00">ry: int32(kCommReduce)</text>
<text text-anchor="start" x="1657" y="-117.3" font-family="Times,serif" font-size="14.00">range(min=0, ext=3)</text>
</g>
<!-- IterVar_3_6 -->
<g id="node14" class="node">
<title>IterVar_3_6</title>
<polygon fill="#fad7a0" stroke="transparent" points="1385,-108.5 1385,-148.5 1409,-148.5 1409,-108.5 1385,-108.5"/>
<polygon fill="none" stroke="black" points="1385,-108.5 1385,-148.5 1409,-148.5 1409,-108.5 1385,-108.5"/>
<text text-anchor="start" x="1390" y="-124.8" font-family="Times,serif" font-size="14.00">&#45;1</text>
<polygon fill="white" stroke="transparent" points="1409,-108.5 1409,-148.5 1597,-148.5 1597,-108.5 1409,-108.5"/>
<polygon fill="none" stroke="black" points="1409,-108.5 1409,-148.5 1597,-148.5 1597,-108.5 1409,-108.5"/>
<text text-anchor="start" x="1414" y="-132.3" font-family="Times,serif" font-size="14.00">rc: int32(kCommReduce)</text>
<text text-anchor="start" x="1417.5" y="-117.3" font-family="Times,serif" font-size="14.00">range(min=0, ext=256)</text>
</g>
<!-- bias_placeholder -->
<!-- IterVar_5_0 -->
<g id="node16" class="node">
<title>IterVar_5_0</title>
<polygon fill="#ffffff" stroke="transparent" points="3779,-108.5 3779,-148.5 3803,-148.5 3803,-108.5 3779,-108.5"/>
<polygon fill="none" stroke="black" points="3779,-108.5 3779,-148.5 3803,-148.5 3803,-108.5 3779,-108.5"/>
<text text-anchor="start" x="3784" y="-124.8" font-family="Times,serif" font-size="14.00">&#45;1</text>
<polygon fill="white" stroke="transparent" points="3803,-108.5 3803,-148.5 3975,-148.5 3975,-108.5 3803,-108.5"/>
<polygon fill="none" stroke="black" points="3803,-108.5 3803,-148.5 3975,-148.5 3975,-108.5 3803,-108.5"/>
<text text-anchor="start" x="3814.5" y="-132.3" font-family="Times,serif" font-size="14.00">ax0: int32(kDataPar)</text>
<text text-anchor="start" x="3808" y="-117.3" font-family="Times,serif" font-size="14.00">range(min=0, ext=32)</text>
</g>
<!-- IterVar_5_1 -->
<g id="node17" class="node">
<title>IterVar_5_1</title>
<polygon fill="#ffffff" stroke="transparent" points="3565,-108.5 3565,-148.5 3589,-148.5 3589,-108.5 3565,-108.5"/>
<polygon fill="none" stroke="black" points="3565,-108.5 3565,-148.5 3589,-148.5 3589,-108.5 3565,-108.5"/>
<text text-anchor="start" x="3570" y="-124.8" font-family="Times,serif" font-size="14.00">&#45;1</text>
<polygon fill="white" stroke="transparent" points="3589,-108.5 3589,-148.5 3761,-148.5 3761,-108.5 3589,-108.5"/>
<polygon fill="none" stroke="black" points="3589,-108.5 3589,-148.5 3761,-148.5 3761,-108.5 3589,-108.5"/>
<text text-anchor="start" x="3600.5" y="-132.3" font-family="Times,serif" font-size="14.00">ax1: int32(kDataPar)</text>
<text text-anchor="start" x="3594" y="-117.3" font-family="Times,serif" font-size="14.00">range(min=0, ext=32)</text>
</g>
<!-- IterVar_5_2 -->
<g id="node18" class="node">
<title>IterVar_5_2</title>
<polygon fill="#ffffff" stroke="transparent" points="3343,-108.5 3343,-148.5 3367,-148.5 3367,-108.5 3343,-108.5"/>
<polygon fill="none" stroke="black" points="3343,-108.5 3343,-148.5 3367,-148.5 3367,-108.5 3343,-108.5"/>
<text text-anchor="start" x="3348" y="-124.8" font-family="Times,serif" font-size="14.00">&#45;1</text>
<polygon fill="white" stroke="transparent" points="3367,-108.5 3367,-148.5 3548,-148.5 3548,-108.5 3367,-108.5"/>
<polygon fill="none" stroke="black" points="3367,-108.5 3367,-148.5 3548,-148.5 3548,-108.5 3367,-108.5"/>
<text text-anchor="start" x="3383" y="-132.3" font-family="Times,serif" font-size="14.00">ax2: int32(kDataPar)</text>
<text text-anchor="start" x="3372" y="-117.3" font-family="Times,serif" font-size="14.00">range(min=0, ext=256)</text>
</g>
<!-- IterVar_5_3 -->
<g id="node19" class="node">
<title>IterVar_5_3</title>
<polygon fill="#ffffff" stroke="transparent" points="3138,-108.5 3138,-148.5 3162,-148.5 3162,-108.5 3138,-108.5"/>
<polygon fill="none" stroke="black" points="3138,-108.5 3138,-148.5 3162,-148.5 3162,-108.5 3138,-108.5"/>
<text text-anchor="start" x="3143" y="-124.8" font-family="Times,serif" font-size="14.00">&#45;1</text>
<polygon fill="white" stroke="transparent" points="3162,-108.5 3162,-148.5 3325,-148.5 3325,-108.5 3162,-108.5"/>
<polygon fill="none" stroke="black" points="3162,-108.5 3162,-148.5 3325,-148.5 3325,-108.5 3162,-108.5"/>
<text text-anchor="start" x="3169" y="-132.3" font-family="Times,serif" font-size="14.00">ax3: int32(kDataPar)</text>
<text text-anchor="start" x="3167" y="-117.3" font-family="Times,serif" font-size="14.00">range(min=0, ext=1)</text>
</g>
<!-- IterVar_6_0 -->
<g id="node20" class="node">
<title>IterVar_6_0</title>
<polygon fill="#ffffff" stroke="transparent" points="4640,-108.5 4640,-148.5 4664,-148.5 4664,-108.5 4640,-108.5"/>
<polygon fill="none" stroke="black" points="4640,-108.5 4640,-148.5 4664,-148.5 4664,-108.5 4640,-108.5"/>
<text text-anchor="start" x="4645" y="-124.8" font-family="Times,serif" font-size="14.00">&#45;1</text>
<polygon fill="white" stroke="transparent" points="4664,-108.5 4664,-148.5 4836,-148.5 4836,-108.5 4664,-108.5"/>
<polygon fill="none" stroke="black" points="4664,-108.5 4664,-148.5 4836,-148.5 4836,-108.5 4664,-108.5"/>
<text text-anchor="start" x="4681.5" y="-132.3" font-family="Times,serif" font-size="14.00">i0: int32(kDataPar)</text>
<text text-anchor="start" x="4669" y="-117.3" font-family="Times,serif" font-size="14.00">range(min=0, ext=32)</text>
</g>
<!-- IterVar_6_1 -->
<g id="node21" class="node">
<title>IterVar_6_1</title>
<polygon fill="#ffffff" stroke="transparent" points="4426,-108.5 4426,-148.5 4450,-148.5 4450,-108.5 4426,-108.5"/>
<polygon fill="none" stroke="black" points="4426,-108.5 4426,-148.5 4450,-148.5 4450,-108.5 4426,-108.5"/>
<text text-anchor="start" x="4431" y="-124.8" font-family="Times,serif" font-size="14.00">&#45;1</text>
<polygon fill="white" stroke="transparent" points="4450,-108.5 4450,-148.5 4622,-148.5 4622,-108.5 4450,-108.5"/>
<polygon fill="none" stroke="black" points="4450,-108.5 4450,-148.5 4622,-148.5 4622,-108.5 4450,-108.5"/>
<text text-anchor="start" x="4467.5" y="-132.3" font-family="Times,serif" font-size="14.00">i1: int32(kDataPar)</text>
<text text-anchor="start" x="4455" y="-117.3" font-family="Times,serif" font-size="14.00">range(min=0, ext=32)</text>
</g>
<!-- IterVar_6_2 -->
<g id="node22" class="node">
<title>IterVar_6_2</title>
<polygon fill="#ffffff" stroke="transparent" points="4204,-108.5 4204,-148.5 4228,-148.5 4228,-108.5 4204,-108.5"/>
<polygon fill="none" stroke="black" points="4204,-108.5 4204,-148.5 4228,-148.5 4228,-108.5 4204,-108.5"/>
<text text-anchor="start" x="4209" y="-124.8" font-family="Times,serif" font-size="14.00">&#45;1</text>
<polygon fill="white" stroke="transparent" points="4228,-108.5 4228,-148.5 4409,-148.5 4409,-108.5 4228,-108.5"/>
<polygon fill="none" stroke="black" points="4228,-108.5 4228,-148.5 4409,-148.5 4409,-108.5 4228,-108.5"/>
<text text-anchor="start" x="4250" y="-132.3" font-family="Times,serif" font-size="14.00">i2: int32(kDataPar)</text>
<text text-anchor="start" x="4233" y="-117.3" font-family="Times,serif" font-size="14.00">range(min=0, ext=256)</text>
</g>
<!-- IterVar_6_3 -->
<g id="node23" class="node">
<title>IterVar_6_3</title>
<polygon fill="#ffffff" stroke="transparent" points="3999,-108.5 3999,-148.5 4023,-148.5 4023,-108.5 3999,-108.5"/>
<polygon fill="none" stroke="black" points="3999,-108.5 3999,-148.5 4023,-148.5 4023,-108.5 3999,-108.5"/>
<text text-anchor="start" x="4004" y="-124.8" font-family="Times,serif" font-size="14.00">&#45;1</text>
<polygon fill="white" stroke="transparent" points="4023,-108.5 4023,-148.5 4186,-148.5 4186,-108.5 4023,-108.5"/>
<polygon fill="none" stroke="black" points="4023,-108.5 4023,-148.5 4186,-148.5 4186,-108.5 4023,-108.5"/>
<text text-anchor="start" x="4036" y="-132.3" font-family="Times,serif" font-size="14.00">i3: int32(kDataPar)</text>
<text text-anchor="start" x="4028" y="-117.3" font-family="Times,serif" font-size="14.00">range(min=0, ext=1)</text>
</g>
</g>
</svg>