<svg xmlns="http://www.w3.org/2000/svg" xmlns:xlink="http://www.w3.org/1999/xlink" fill="#fff" fill-rule="evenodd" stroke="#000" stroke-linecap="round" stroke-linejoin="round" viewBox="0 0 63 66">
  <use href="#a" xlink:href="#a" x="1" y="1"/>
  <symbol id="a" overflow="visible">
    <g fill-rule="nonzero" stroke="none">
      <path fill="#fc3" d="M55.44 9.2 60.53 0c-1.21 1.13-1.8 1.49-2.94 2.26-6.15 4.22-13.73 5.23-21.34 11.49-5.15 4.25-7.54 10.4-7.54 10.4s6.93-7.8 17.4-11.66c4.23-1.57 7.18-2.43 9.33-3.27"/>
      <path fill="#063" d="M52.72 14.14c-5.51 1.76-12.08 3.44-18.8 7.98-5.25 3.54-8.3 9.57-8.3 9.57s7.4-7.39 18.14-9.91l5.5-1.29 3.47-6.35M46.58 25.6c-2.64.24-8.15.73-14.6 4.33-4.25 2.36-7.6 5.59-7.6 5.59v.02a119.97 119.97 0 0 0-4.72 10.52l-8.5-15.53H0l3.56 3.57v26.27L0 63.92h12.2l-3.62-3.57v-20.4l7.96 14.26-2.51 8.27 2.56-3s2.08-9.9 10.29-19.63v20.78L23.3 64h14.13l-3.07-3.57V32.67c7.43-5.89 12.23-7.08 12.2-7.08z"/>
    </g>
  </symbol>
</svg>
