<svg xmlns="http://www.w3.org/2000/svg" viewBox="0 0 118.5 118.5">
  <path fill="#98cbfb" d="M0 0h118.5v118.5H0z" />
  <circle cx="63.6" cy="57.4" r="29.7" fill="#f3ee00" stroke="#000" stroke-width="2.1" />
  <path fill="none" stroke="#000" stroke-width="2.5" d="M49.2 31.8s-1-16-10.6-31.8" />
  <path fill="none" stroke="#000" stroke-width="2.5" d="M74.3 29.1s2.2-15.2 12-31.7" />
  <path fill="none" stroke="#000" stroke-width="2.5" d="M89.2 42.3s11.4-15.8 31.4-23.8" />
  <path fill="none" stroke="#000" stroke-width="2.5" d="M92.9 63.5s9.5 2.1 25.6-.3" />
  <path fill="none" stroke="#000" stroke-width="2.5" d="M38.6 42.3S25.5 31 0 26.5" />
  <path fill="none" stroke="#000" stroke-width="2.5" d="M36 67.7s-12.7 8.5-36 17" />
  <path fill="#fff" stroke="#000" stroke-width="2.5" d="M123.3 93.1a11.6 12.7 0 0 0-10-6.3 11.6 12.7 0 0 0-4.9 1.1 14.8 13.8 0 0 0-13.2-7.5 14.8 13.8 0 0 0-1.7.1A19 14.8 0 0 0 76.2 72a19 14.8 0 0 0-14.1 4.9 20.1 14.8 0 0 0-6-.7 20.1 14.8 0 0 0-16.7 6.6 23.3 22.2 0 0 0-14-4.5 23.3 22.2 0 0 0-14 4.5 14.8 14.8 0 0 0-3-.3A14.8 14.8 0 0 0 0 85.2" />
  <path fill="#fff" d="M0 84.7 118.5 91v27.5H0Z" />
</svg>
