<svg viewBox="0 0 400 400" xmlns="http://www.w3.org/2000/svg">
  <path d="M51.249 0C22.857 0 0 22.857 0 51.25v297.502C0 377.142 22.857 400 51.249 400h297.502C377.144 400 400 377.143 400 348.75V51.249C399.999 22.858 377.142 0 348.75 0H51.248Zm59.295 98.145c27.803 0 49.011 8.822 63.625 26.467 14.793 17.466 22.188 41.704 22.188 72.715 0 20.852-4.01 39.21-12.03 55.072-7.841 15.683-18.712 27.892-32.614 36.625-13.723 8.554-29.14 12.83-46.25 12.83-18.179 0-33.595-4.188-46.25-12.565-12.474-8.376-21.919-20.138-28.335-35.287-6.416-15.327-9.626-33.06-9.626-53.199 0-20.496 3.833-38.496 11.496-54.002 7.841-15.506 18.535-27.449 32.08-35.825 13.545-8.554 28.785-12.83 45.716-12.83zm185.26 0c24.596 0 42.151 3.833 52.666 11.496 10.693 7.664 16.04 18.891 16.04 33.684 0 12.654-3.654 23.525-10.961 32.615-7.307 9.09-17.286 14.792-29.94 17.109 17.109-.356 30.565 3.654 40.366 12.03 9.803 8.377 14.703 19.782 14.703 34.218 0 18.001-6.415 32.704-19.247 44.11-12.654 11.407-33.684 17.112-63.09 17.112-6.417 0-12.566-.268-18.447-.803-13.902-.535-22.188-.803-24.862-.803h-35.555v-13.098l22.188-2.673V116.858l-21.922-3.207v-13.367h36.09c6.06 0 13.724-.356 22.991-1.069 8.555-.713 14.883-1.07 18.98-1.07zm-186.866 13.901c-17.287 0-30.92 7.575-40.901 22.725-9.98 14.97-14.97 36.981-14.97 66.032 0 26.733 4.812 47.942 14.436 63.626 9.802 15.505 23.435 23.257 40.9 23.257 17.11 0 30.654-7.752 40.635-23.258 10.159-15.505 15.24-37.784 15.24-66.834 0-26.912-4.813-47.853-14.437-62.823-9.624-15.15-23.259-22.725-40.903-22.725zm184.46 0c-6.415 0-13.009.358-19.78 1.07l-5.615.535v74.319c2.496.178 7.574.269 15.238.269h14.702c12.476 0 21.923-3.476 28.339-10.426 6.416-6.952 9.624-16.845 9.624-29.677 0-12.476-3.208-21.564-9.624-27.268-6.416-5.88-17.378-8.822-32.883-8.822zm9.09 91.695c-18.179 0-29.673.18-34.485.538v79.665c4.1 1.426 13.366 2.138 27.802 2.138 18 0 31.011-3.654 39.031-10.96 8.199-7.486 12.299-18.18 12.299-32.08 0-13.725-3.566-23.705-10.695-29.943-6.951-6.238-18.268-9.358-33.953-9.358z"/>
</svg>